<svg xmlns="http://www.w3.org/2000/svg" viewBox="0 0 1024 1024" width="1024" height="1024">
  <defs>
    <linearGradient id="bg" x1="0" y1="0" x2="1" y2="1">
      <stop offset="0" stop-color="#17395a"/>
      <stop offset="0.48" stop-color="#0b2237"/>
      <stop offset="1" stop-color="#050b16"/>
    </linearGradient>
    <linearGradient id="line" x1="0" y1="1" x2="1" y2="0">
      <stop offset="0" stop-color="#4ec3ff"/>
      <stop offset="1" stop-color="#dff6ff"/>
    </linearGradient>
    <filter id="glow" x="-25%" y="-25%" width="150%" height="150%">
      <feGaussianBlur stdDeviation="18" result="blur"/>
      <feMerge>
        <feMergeNode in="blur"/>
        <feMergeNode in="SourceGraphic"/>
      </feMerge>
    </filter>
  </defs>
  <rect width="1024" height="1024" rx="224" fill="url(#bg)"/>
  <rect x="38" y="38" width="948" height="948" rx="194" fill="none" stroke="#fff" stroke-opacity=".08" stroke-width="6"/>
  <path d="M168 654 C254 654 300 568 368 526 C450 474 520 402 628 306 C686 254 754 224 856 222"
        fill="none" stroke="url(#line)" stroke-width="44" stroke-linecap="round" filter="url(#glow)"/>
  <path d="M168 654 C254 654 300 568 368 526 C450 474 520 402 628 306 C686 254 754 224 856 222"
        fill="none" stroke="#fff" stroke-opacity=".22" stroke-width="12" stroke-linecap="round"/>
  <circle cx="168" cy="654" r="34" fill="#4ec3ff"/>
  <g transform="translate(856 222) rotate(-15)">
    <path d="M58 0 C48 -14 32 -20 10 -20 L-36 -20 L-72 -92 L-102 -92 L-82 -20 L-136 -20 L-170 -48 L-194 -48 L-174 -10 L-214 -5 L-214 5 L-174 10 L-194 48 L-170 48 L-136 20 L-82 20 L-102 92 L-72 92 L-36 20 L10 20 C32 20 48 14 58 0 Z"
          fill="#fff"/>
  </g>
  <text x="142" y="388" fill="#fff" font-family="Inter, Arial, sans-serif" font-size="194" font-weight="800" letter-spacing="0">PC</text>
</svg>
