<svg xmlns="http://www.w3.org/2000/svg" viewBox="0 0 512 512" width="512" height="512">
  <defs>
    <linearGradient id="sky" x1="0" y1="0" x2="0" y2="1">
      <stop offset="0" stop-color="#2b83c9"/>
      <stop offset="1" stop-color="#155091"/>
    </linearGradient>
  </defs>
  <rect width="512" height="512" rx="114" fill="url(#sky)"/>

  <!-- flat winged-monkey silhouette -->
  <g fill="#ffffff">
    <!-- wings -->
    <path d="M214 250 C150 196 96 196 60 214 C104 226 108 246 150 252
             C104 266 104 288 74 302 C120 292 132 306 176 288 C168 272 190 258 214 250 Z"/>
    <path d="M298 250 C362 196 416 196 452 214 C408 226 404 246 362 252
             C408 266 408 288 438 302 C392 292 380 306 336 288 C344 272 322 258 298 250 Z"/>

    <!-- ears -->
    <circle cx="206" cy="150" r="34"/>
    <circle cx="306" cy="150" r="34"/>
    <!-- head -->
    <circle cx="256" cy="176" r="62"/>
    <!-- body -->
    <path d="M256 228 C304 228 326 272 326 320 C326 382 298 420 256 420
             C214 420 186 382 186 320 C186 272 208 228 256 228 Z"/>
    <!-- curled tail -->
    <path d="M318 392 C378 400 402 356 374 330 C356 313 330 322 340 344
             C347 360 330 366 312 360 Z"/>
  </g>
</svg>
