<svg xmlns="http://www.w3.org/2000/svg" viewBox="0 0 512 512" width="512" height="512">
  <defs>
    <linearGradient id="sky" x1="0" y1="0" x2="0" y2="1">
      <stop offset="0" stop-color="#2aa4c9"/>
      <stop offset="1" stop-color="#156a9b"/>
    </linearGradient>
  </defs>
  <rect width="512" height="512" rx="114" fill="url(#sky)"/>

  <g fill="#ffffff">
    <!-- wings: two smooth swept shapes, lifted like a glide -->
    <path d="M186 252 C130 200 82 192 50 206 C94 220 98 242 140 252
             C102 266 98 288 76 302 C128 296 166 286 192 268 Z"/>
    <path d="M326 252 C382 200 430 192 462 206 C418 220 414 242 372 252
             C410 266 414 288 436 302 C384 296 346 286 320 268 Z"/>
    <!-- ears -->
    <circle cx="198" cy="218" r="38"/>
    <circle cx="314" cy="218" r="38"/>
    <!-- head -->
    <circle cx="256" cy="254" r="82"/>
  </g>
  <!-- face cut-outs in the sky colour: just eyes + smile -->
  <g fill="#156a9b">
    <circle cx="229" cy="242" r="11"/>
    <circle cx="283" cy="242" r="11"/>
    <path d="M224 286 Q256 314 288 286 Q256 300 224 286 Z"/>
  </g>
</svg>
