<svg xmlns="http://www.w3.org/2000/svg" viewBox="0 0 512 512" width="512" height="512">
  <defs>
    <linearGradient id="bg" x1="0" y1="0" x2="0" y2="1">
      <stop offset="0" stop-color="#0e1830"/>
      <stop offset="1" stop-color="#060a12"/>
    </linearGradient>
    <linearGradient id="sweep" x1="0" y1="0" x2="1" y2="1">
      <stop offset="0" stop-color="#5ec2ff" stop-opacity=".55"/>
      <stop offset="1" stop-color="#5ec2ff" stop-opacity="0"/>
    </linearGradient>
  </defs>

  <rect width="512" height="512" rx="112" fill="url(#bg)"/>

  <!-- radar rings -->
  <g fill="none" stroke="#5ec2ff" stroke-opacity=".28" stroke-width="6">
    <circle cx="256" cy="256" r="186"/>
    <circle cx="256" cy="256" r="126"/>
    <circle cx="256" cy="256" r="66"/>
  </g>
  <path d="M256 256 L256 70 A186 186 0 0 1 387 125 Z" fill="url(#sweep)"/>
  <g stroke="#5ec2ff" stroke-opacity=".18" stroke-width="5">
    <line x1="256" y1="60" x2="256" y2="452"/>
    <line x1="60" y1="256" x2="452" y2="256"/>
  </g>

  <!-- airliner silhouette, banking right -->
  <g transform="rotate(35 256 262)">
    <path d="M256 118c15 0 24 21 25 52l0 31 112 66 0 31-112-34 0 59 39 29 0 23-64-17-64 17 0-23 39-29 0-59-112 34 0-31 112-66 0-31c1-31 10-52 25-52z"
          fill="#eaf0f9" stroke="#0a1020" stroke-width="9" stroke-linejoin="round"/>
  </g>
</svg>
