<svg viewBox="0 0 600 640" xmlns="http://www.w3.org/2000/svg" font-family="ui-monospace, 'SF Mono', Menlo, monospace">
  <defs>
    <linearGradient id="panelBg" x1="0" y1="0" x2="0" y2="1">
      <stop offset="0" stop-color="#3d403f"/>
      <stop offset="1" stop-color="#2c2e2d"/>
    </linearGradient>
    <radialGradient id="cbCap" cx="0.35" cy="0.3" r="0.9">
      <stop offset="0" stop-color="#2a2a2a"/>
      <stop offset="1" stop-color="#0a0a0a"/>
    </radialGradient>
    <radialGradient id="cbCapHi" cx="0.35" cy="0.3" r="0.9">
      <stop offset="0" stop-color="#3a2010"/>
      <stop offset="1" stop-color="#180800"/>
    </radialGradient>
    <filter id="glow" x="-50%" y="-50%" width="200%" height="200%">
      <feGaussianBlur stdDeviation="4" result="blur"/>
      <feMerge><feMergeNode in="blur"/><feMergeNode in="SourceGraphic"/></feMerge>
    </filter>
  </defs>

  <rect x="0" y="0" width="600" height="640" fill="#0e1116"/>

  <text x="300" y="30" text-anchor="middle" fill="#e6e8ea" font-size="16" font-weight="700" letter-spacing="0.08em">P18-2 · STICK SHAKER — LEFT</text>
  <text x="300" y="50" text-anchor="middle" fill="#ff6b60" font-size="11" font-weight="700" letter-spacing="0.1em">ROW E · COL 3 · C1392 · 5 A</text>

  <!-- Panel overview -->
  <g transform="translate(20,70)">
    <path d="M 0 0 L 380 0 L 560 85 L 560 300 L 0 300 Z" fill="url(#panelBg)" stroke="#1a1a1a" stroke-width="2"/>
    <text x="20" y="288" fill="#9aa0a6" font-size="9" letter-spacing="0.1em">P18 – 2</text>

    <!-- Rows A–D dimmed -->
    <g transform="translate(0,12)" opacity="0.3">
      <text x="10" y="38" fill="#9aa0a6" font-size="8">A</text>
      <circle cx="40" cy="30" r="6" fill="url(#cbCap)"/>
      <circle cx="90" cy="30" r="6" fill="url(#cbCap)"/>
      <circle cx="130" cy="30" r="6" fill="url(#cbCap)"/>
      <circle cx="170" cy="30" r="6" fill="url(#cbCap)"/>
      <circle cx="220" cy="30" r="6" fill="url(#cbCap)"/>
      <circle cx="260" cy="30" r="6" fill="url(#cbCap)"/>
      <circle cx="330" cy="30" r="6" fill="url(#cbCap)"/>
    </g>
    <g transform="translate(0,62)" opacity="0.3">
      <text x="10" y="38" fill="#9aa0a6" font-size="8">B</text>
      <circle cx="40" cy="30" r="6" fill="url(#cbCap)"/>
      <circle cx="75" cy="30" r="6" fill="url(#cbCap)"/>
      <circle cx="110" cy="30" r="6" fill="url(#cbCap)"/>
      <circle cx="145" cy="30" r="6" fill="url(#cbCap)"/>
      <circle cx="180" cy="30" r="6" fill="url(#cbCap)"/>
      <circle cx="215" cy="30" r="6" fill="url(#cbCap)"/>
      <circle cx="250" cy="30" r="6" fill="url(#cbCap)"/>
      <circle cx="285" cy="30" r="6" fill="url(#cbCap)"/>
      <circle cx="365" cy="30" r="6" fill="url(#cbCap)"/>
    </g>
    <g transform="translate(0,112)" opacity="0.3">
      <text x="10" y="38" fill="#9aa0a6" font-size="8">C</text>
      <circle cx="220" cy="30" r="6" fill="url(#cbCap)"/>
      <circle cx="260" cy="30" r="6" fill="url(#cbCap)"/>
      <circle cx="300" cy="30" r="6" fill="url(#cbCap)"/>
      <circle cx="340" cy="30" r="6" fill="url(#cbCap)"/>
    </g>
    <g transform="translate(0,158)" opacity="0.3">
      <text x="10" y="38" fill="#9aa0a6" font-size="8">D</text>
      <circle cx="40" cy="30" r="6" fill="url(#cbCap)"/>
      <circle cx="80" cy="30" r="6" fill="url(#cbCap)"/>
      <circle cx="120" cy="30" r="6" fill="url(#cbCap)"/>
      <circle cx="160" cy="30" r="6" fill="url(#cbCap)"/>
      <circle cx="200" cy="30" r="6" fill="url(#cbCap)"/>
      <circle cx="240" cy="30" r="6" fill="url(#cbCap)"/>
      <circle cx="280" cy="30" r="6" fill="url(#cbCap)"/>
      <circle cx="320" cy="30" r="6" fill="url(#cbCap)"/>
      <circle cx="410" cy="30" r="6" fill="url(#cbCap)"/>
      <circle cx="450" cy="30" r="6" fill="url(#cbCap)"/>
    </g>

    <!-- Row E focus -->
    <g transform="translate(0,205)">
      <text x="10" y="42" fill="#e6e8ea" font-size="8" font-weight="700">E</text>
      <g font-size="6.3" fill="#c9ccd0" text-anchor="middle">
        <text x="40" y="8">INSTR</text><text x="40" y="14">XFR</text>
        <text x="75" y="8">MACH</text><text x="75" y="14">WARN SYS-1</text>
        <text x="110" y="8">STICK</text><text x="110" y="14">SHAKER LEFT</text>
        <text x="145" y="8">SMYD-1</text><text x="145" y="14">CMPTR DC</text>
        <text x="180" y="8">SNSR</text><text x="180" y="14">EXC AC</text>
        <text x="215" y="8">STALL WARN</text><text x="215" y="14">ASYM MODE</text>
        <text x="250" y="8">ADIRU</text><text x="250" y="14">LEFT EXC</text>
      </g>
      <circle cx="40" cy="33" r="7" fill="url(#cbCap)"/><text x="40" y="36" fill="#e6e8ea" font-size="6.5" text-anchor="middle">5</text>
      <circle cx="75" cy="33" r="7" fill="url(#cbCap)"/><text x="75" y="36" fill="#e6e8ea" font-size="6.5" text-anchor="middle">3</text>
      <circle cx="110" cy="33" r="16" fill="none" stroke="#ff3b30" stroke-width="2.5" filter="url(#glow)"/>
      <circle cx="110" cy="33" r="7" fill="url(#cbCapHi)" stroke="#ff6b60" stroke-width="1"/>
      <text x="110" y="36" fill="#ffb1a8" font-size="6.5" font-weight="700" text-anchor="middle">5</text>
      <text x="110" y="58" fill="#ff6b60" font-size="7" font-weight="700" text-anchor="middle">E3</text>
      <circle cx="145" cy="33" r="7" fill="url(#cbCap)"/><text x="145" y="36" fill="#e6e8ea" font-size="6.5" text-anchor="middle">5</text>
      <circle cx="180" cy="33" r="7" fill="url(#cbCap)"/><text x="180" y="36" fill="#e6e8ea" font-size="6.5" text-anchor="middle">2.5</text>
      <circle cx="215" cy="33" r="7" fill="url(#cbCap)"/><text x="215" y="36" fill="#e6e8ea" font-size="6.5" text-anchor="middle">2.5</text>
      <circle cx="250" cy="33" r="7" fill="url(#cbCap)"/><text x="250" y="36" fill="#e6e8ea" font-size="6.5" text-anchor="middle">3</text>
    </g>
  </g>

  <!-- Close-up -->
  <g transform="translate(20,390)">
    <rect x="0" y="0" width="560" height="230" rx="8" fill="url(#panelBg)" stroke="#1a1a1a" stroke-width="2"/>
    <text x="18" y="24" fill="#9aa0a6" font-size="10" letter-spacing="0.1em">CLOSE-UP · ROW E</text>

    <g font-size="9" fill="#c9ccd0" text-anchor="middle">
      <text x="105" y="70">INSTR</text><text x="105" y="82">XFR</text>
      <text x="185" y="70">MACH WARN</text><text x="185" y="82">SYS-1</text>
      <text x="265" y="62">STICK</text><text x="265" y="72">SHAKER</text><text x="265" y="82">LEFT</text>
      <text x="345" y="52">SMYD-1</text>
      <text x="345" y="70">CMPTR</text><text x="345" y="82">DC</text>
      <text x="425" y="70">SNSR</text><text x="425" y="82">EXC AC</text>
      <text x="505" y="70">STALL WARN</text><text x="505" y="82">ASYM MODE</text>
    </g>

    <circle cx="105" cy="130" r="18" fill="url(#cbCap)" stroke="#111" stroke-width="1"/>
    <text x="105" y="135" fill="#e6e8ea" font-size="11" text-anchor="middle">5</text>
    <text x="105" y="163" fill="#7a8087" font-size="9" text-anchor="middle">C412</text>
    <text x="105" y="180" fill="#9aa0a6" font-size="10" text-anchor="middle" font-weight="600">E1</text>

    <circle cx="185" cy="130" r="18" fill="url(#cbCap)" stroke="#111" stroke-width="1"/>
    <text x="185" y="135" fill="#e6e8ea" font-size="11" text-anchor="middle">3</text>
    <text x="185" y="163" fill="#7a8087" font-size="9" text-anchor="middle">C170</text>
    <text x="185" y="180" fill="#9aa0a6" font-size="10" text-anchor="middle" font-weight="600">E2</text>

    <circle cx="265" cy="130" r="34" fill="none" stroke="#ff3b30" stroke-width="3" opacity="0.9"/>
    <circle cx="265" cy="130" r="27" fill="none" stroke="#ff3b30" stroke-width="1.5" opacity="0.5"/>
    <circle cx="265" cy="130" r="18" fill="url(#cbCapHi)" stroke="#ff6b60" stroke-width="1.5"/>
    <text x="265" y="135" fill="#ffb1a8" font-size="11" text-anchor="middle" font-weight="700">5</text>
    <text x="265" y="163" fill="#ff6b60" font-size="9" text-anchor="middle" font-weight="700">C1392</text>
    <text x="265" y="180" fill="#ff6b60" font-size="11" text-anchor="middle" font-weight="800">E3</text>

    <circle cx="345" cy="130" r="18" fill="url(#cbCap)" stroke="#111" stroke-width="1"/>
    <text x="345" y="135" fill="#e6e8ea" font-size="11" text-anchor="middle">5</text>
    <text x="345" y="163" fill="#7a8087" font-size="9" text-anchor="middle">C1204</text>
    <text x="345" y="180" fill="#9aa0a6" font-size="10" text-anchor="middle" font-weight="600">E4</text>

    <circle cx="425" cy="130" r="18" fill="url(#cbCap)" stroke="#111" stroke-width="1"/>
    <text x="425" y="135" fill="#e6e8ea" font-size="11" text-anchor="middle">2.5</text>
    <text x="425" y="163" fill="#7a8087" font-size="9" text-anchor="middle">C1205</text>
    <text x="425" y="180" fill="#9aa0a6" font-size="10" text-anchor="middle" font-weight="600">E5</text>

    <circle cx="505" cy="130" r="18" fill="url(#cbCap)" stroke="#111" stroke-width="1"/>
    <text x="505" y="135" fill="#e6e8ea" font-size="11" text-anchor="middle">2.5</text>
    <text x="505" y="163" fill="#7a8087" font-size="9" text-anchor="middle">C1208</text>
    <text x="505" y="180" fill="#9aa0a6" font-size="10" text-anchor="middle" font-weight="600">E6</text>

    <text x="280" y="215" text-anchor="middle" fill="#8a9199" font-size="10">Behind Captain · P18 panel, section 2 · Row E, third breaker from left</text>
  </g>
</svg>
